<svg xmlns="http://www.w3.org/2000/svg" viewBox="0 0 800 600">
  <!-- Sky and Clouds -->
  <rect width="800" height="600" fill="#E6F3FF"/>
  <path d="M50 100 Q100 50 150 100 T250 100" fill="#fff" />
  <path d="M350 150 Q400 100 450 150 T550 150" fill="#fff" />
  
  <!-- Roads -->
  <path d="M0 300 C200 250, 600 350, 800 300" fill="#444" />
  <path d="M0 400 C300 450, 500 380, 800 420" fill="#444" />
  
  <!-- Road Lines -->
  <path d="M50 300 L100 298 M150 296 L200 294 M250 292 L300 290" stroke="#fff" strokeWidth="4" strokeDasharray="20,20"/>
  <path d="M50 400 L100 405 M150 410 L200 415 M250 420 L300 425" stroke="#fff" strokeWidth="4" strokeDasharray="20,20"/>
  
  <!-- Cartoon Cars -->
  <g transform="translate(100,280) scale(0.5)">
    <rect x="0" y="0" width="80" height="40" rx="10" fill="#FF6B6B"/>
    <rect x="60" y="10" width="40" height="20" fill="#FF6B6B"/>
    <circle cx="20" cy="40" r="10" fill="#333"/>
    <circle cx="70" cy="40" r="10" fill="#333"/>
  </g>
  
  <g transform="translate(300,380) scale(0.5)">
    <rect x="0" y="0" width="100" height="30" rx="10" fill="#4ECDC4"/>
    <rect x="70" y="10" width="30" height="15" fill="#4ECDC4"/>
    <circle cx="25" cy="30" r="12" fill="#333"/>
    <circle cx="75" cy="30" r="12" fill="#333"/>
  </g>
  
  <!-- Buildings -->
  <rect x="50" y="150" width="40" height="100" fill="#95A5A6"/>
  <rect x="150" y="100" width="60" height="150" fill="#BDC3C7"/>
  <rect x="300" y="120" width="50" height="130" fill="#7F8C8D"/>
  
  <!-- Trees -->
  <circle cx="120" cy="200" r="20" fill="#27AE60"/>
  <rect x="115" y="200" width="10" height="20" fill="#795548"/>
  
  <circle cx="400" cy="180" r="25" fill="#27AE60"/>
  <rect x="395" y="180" width="10" height="25" fill="#795548"/>
</svg>